<?xml version="1.0" standalone="no"?>
<!DOCTYPE svg PUBLIC "-//W3C//DTD SVG 20010904//EN"
 "http://www.w3.org/TR/2001/REC-SVG-20010904/DTD/svg10.dtd">
<svg version="1.0" xmlns="http://www.w3.org/2000/svg"
 width="442.000000pt" height="442.000000pt" viewBox="0 0 442.000000 442.000000"
 preserveAspectRatio="xMidYMid meet">
<metadata>
Created by potrace 1.11, written by Peter Selinger 2001-2013
</metadata>
<g transform="translate(0.000000,442.000000) scale(0.100000,-0.100000)"
fill="#000000" stroke="none">
<path d="M2045 4398 c-22 -4 -56 -11 -75 -14 -76 -13 -215 -76 -272 -123 -44
-36 -79 -78 -101 -121 -21 -42 -22 -58 -22 -260 0 -207 1 -217 24 -260 13 -24
40 -60 60 -79 l36 -35 0 -276 c1 -187 -3 -289 -11 -320 -7 -25 -40 -142 -73
-260 -33 -118 -71 -258 -85 -310 -36 -135 -129 -479 -177 -655 -23 -82 -46
-166 -51 -185 -5 -19 -11 -43 -13 -53 -3 -9 -7 -25 -9 -35 -5 -18 -23 -83 -56
-202 -11 -41 -22 -82 -24 -90 -2 -8 -28 -100 -56 -205 -41 -147 -53 -206 -52
-260 0 -163 106 -320 295 -438 91 -58 176 -97 282 -131 66 -21 208 -53 265
-60 25 -3 65 -8 90 -12 53 -7 297 -7 355 0 22 3 60 7 85 10 100 12 241 47 350
87 71 26 221 104 252 130 12 12 34 28 48 36 42 26 136 139 162 195 60 127 60
201 3 403 -20 72 -41 146 -45 165 -5 19 -18 69 -30 110 -11 41 -22 82 -24 90
-2 8 -37 134 -76 280 -40 146 -87 321 -106 390 -19 69 -50 184 -69 255 -20 72
-37 137 -39 145 -7 29 -45 166 -110 404 l-66 239 0 277 0 276 31 30 c38 36 75
98 84 144 12 56 7 387 -6 428 -42 132 -205 239 -434 287 -48 11 -296 13 -340
3z"/>
</g>
</svg>
